<?xml version="1.0" encoding="UTF-8"?>
<svg enable-background="new 0 0 136.612 114.78" viewBox="0 0 136.612 114.78" xmlns="http://www.w3.org/2000/svg">
 <defs>
  <radialGradient id="a" cx="39.599" cy="37.303" r="97.166" gradientUnits="userSpaceOnUse">
   <stop stop-color="#ffd53d" offset="0"/>
   <stop stop-color="#ffd23a" offset=".3017"/>
   <stop stop-color="#ffc830" offset=".5348"/>
   <stop stop-color="#ffb820" offset=".7449"/>
   <stop stop-color="#ffa209" offset=".9404"/>
   <stop stop-color="#f90" offset="1"/>
  </radialGradient>
 </defs>
 <path d="m123.843,54.962c-3.924,2.128-12.495,8.549-12.495.475v-17.777c0-13.899-11.979-12.125-22.235-12.125h-14.048c-1.87,0-3.241-2.571-3.242-4.223-.008-5.123 5.996-5.692 8.958-8.609 5.482-5.396-2.166-11.351-7.167-12.189-7.617-1.276-21.358,2.32-16.46,12.742 1.761,3.745 6.868,12.278-1.168,12.278h-17.583c-5.128,0-10.663-.291-13.356,5.201-2,4.076-.943,10.403-.943,14.749v13.585c0,2.467-8.253-2.097-8.85-2.485-2.656-1.735-5.007-3.087-8.272-2.023-7.233,2.36-7.432,12.976-4.022,18.456 5.435,8.736 11.905-.81 18.204-1.976 4.488-.826 2.94,3.72 2.94,6.813v15.922c0,3.168-.489,6.86.245,9.995 1.546,6.593 7.949,7.046 13.456,7.866 5.152.763 23.522,5.839 22.807-2.879-.503-6.135-8.488-11.208-1.681-17.025 5.089-4.348 15.398-4.981 20.708-.594 1.904,1.573 2.785,3.895 2.785,6.325 0,4.83-6.326,5.429-8.955,8.045-1.737,1.728-2.327,4.827-.633,6.796 2.717,3.154 9.351,1.095 12.996.743 5.411-.523 10.891-1.095 16.234-2.124 12.549,0 9.282-18.505 9.282-26.408v-12.137c0-5.18 13.168,3.821 14.72,4.211 14.217,3.569 11.862-29.261-2.225-21.628" fill="url(#a)"/>
 <path d="m57.369,3.771c-6.605,7.169 4.601,12.219 2.092,18.86-1.426,3.77-10.455,1.974-13.437,1.974-10.89,0-22.85-1.347-22.85,13.172v17.094c0,1.611.897,4.495-1.764,3.758-4.342-1.204-7.617-5.611-12.35-5.388-8.39.394-10.281,10.25-8.387,16.823 1.189,4.124 4.52,8.253 9.308,7.581 3.56-.501 6.366-3.709 9.555-5.104 5.705-2.496 3.639,5.089 3.639,8.763v17.956c0,15.587 20.042,14.344 31.542,15.188 3.172.234 5.931.122 6.721-3.842 .868-4.358-2.703-7.006-3.915-10.766-3.494-10.835 14.527-12.636 20.825-8.517 10.126,6.626-5.176,11.111-7.001,15.802-4.419,11.363 14.794,6.862 19.326,6.334 9.443-1.095 21.603-1.058 21.603-13.477v-26.721c0-4.36 10.056,2.42 11.457,3.32 8.777,5.647 13.5-7.238 12.814-13.686-.65-6.137-6.593-12.304-13.146-8.751-3.185,1.346-11.126,8.432-11.126,1.369 0-7.173 2.53-20.079-1.745-26.403-4.873-7.208-19.019-4.507-26.374-4.507h-9.213c-7.909-4.002 5.505-9.682 7.359-12.254 8.644-11.984-18.023-16.07-24.933-8.578m-32.81,56.229c1.301-2.185.471-6.921.471-9.64v-15.417c0-12.197 20.354-8.48 27.902-8.48 4.186,0 9.112.243 8.602-5.955-.347-4.25-4.135-6.972-4.487-11.293-.46-5.699 7.608-8.121 11.916-8.121 4.378,0 18.263,4.245 11.057,11.059-3.236,3.06-9.008,3.53-9.127,9.03-.037,1.884 1.562,5.281 3.853,5.281h27.211c12.225,0 8.463,20.615 8.463,28.172 0,5.999 3.427,7.343 9.282,4.05 2.887-1.623 5.314-4.215 8.949-3.425 5.454,1.188 6.618,7.423 5.963,12.126-.471,3.373-2.191,7.579-5.94,8.367-3.357.707-6.291-2.441-8.93-3.941-2.286-1.296-7.232-3.271-9.324-.297-.495.703 0,3.603 0,4.418v25.604c0,12.451-27.699,10.999-35.336,11.356-7.315-5.472 4.57-8.693 7.22-12.368 2.729-3.783-.016-9.104-3.602-11.109-6.205-3.468-16.361-2.86-21.332,2.528-5.979,6.49 2.338,11.036 2.338,17.396 0,6.581-17.438,2.014-21.732,1.377-5.088-.752-11.279-1.044-12.724-7.164-1.889-8.011-.221-18.019-.221-26.188 0-1.995.694-5.604-.576-6.926-6.818-2.803-11.901,8.477-18.246,4.617-5.723-3.473-6.252-15.385-.421-18.933 7.096-4.322 12.152,7.621 18.771,3.876m98.842-5.854l-.03.016 .03-.016z" fill="#f90"/>
 <path d="m78.555,6.197c1.446,1.037 2.356,2.871 2.496,4.623 6.022-10.979-27.78-15.347-23.677.335-.039-8.874 16.202-8.526 21.181-4.958" fill="#ff0"/>
 <path d="m61.553,21.482c-.557,11.678-28.309.17-34.685,8.112-3.598,4.479-1.838,13.989-1.838,19.233 0,7.347 2.048,15.85-8.646,9.54 .751.487 9.854,5.351 9.854,2.096v-8.99c0-4.528-2.101-15.945 1.786-19.487 7.355-6.702 36.864,6.174 33.529-10.504" fill="#ff0"/>
 <path d="m110.676,58.924c-2.133-7.864 5.46-32.462-8.72-32.462h-18.819c-4.16,0-11.479,1.695-12.16-4.527-3.168,14.43 26.024,6.264 33.715,8.559 6.768,2.021 4.551,12.893 4.551,18.211v10.336c0,5.267 9.414.345 10.984-.674-2.987,1.762-6.7,3.538-9.551.557" fill="#ff0"/>
 <path d="m109.242,72.037v28.41c0,6.4-4.293,8.399-9.839,9.271-4.856.764-24.878,5.711-26.61.304 .88,6.188 21.574,1.158 26.272.446 6.004-.908 11.354-2.455 11.354-9.729v-18.019c0-2.525-1.469-10.416.987-11.868-.802.266-1.523.661-2.164,1.185" fill="#ff0"/>
 <path d="m57.816,112.143c-7.776-.465-15.63-1.257-23.295-2.685-6.874-.023-8.281-6.014-8.281-11.468 0-3.862 2.175-26.285-1.209-27.208v29.36c0,6.27 3.386,9.008 9.307,10.005 4.666.784 23.872,5.471 25.231.302-.382.771-.968,1.335-1.753,1.694" fill="#ff0"/>
 <path d="m83.35,95.918c0-9.408-7.585-10.679-16.372-10.137-4.252.261-9.868,1.35-11.607,5.861-.713,1.845.185,3.808-.333,5.478 2.147-6.915 6.849-9.709 14.389-9.709 5.11,0 13.923,2.336 13.923,8.507" fill="#ff0"/>
 <path d="m20.082,60.185c-3.66-2.195-8.072-6.31-12.75-4.82-3.02.962-6.638,6.019-5.445,9.377-.943-2.653 4.981-7.498 7.211-7.498 2.474,0 5.047,1.062 7.338,1.88 .346.124 5.174,1.979 3.646,1.061" fill="#ff0"/>
 <path d="m117.189,60.185c3.5-2.17 7.793-6.315 12.329-4.82 3.008.992 6.403,6.077 5.267,9.377 .896-2.606-4.725-7.498-6.974-7.498-2.567.001-10.39,2.798-10.622,2.941" fill="#ff0"/>
</svg>
